<svg width="25" height="21" viewBox="0 0 25 21" fill="none" xmlns="http://www.w3.org/2000/svg">
<path d="M24.7458 3.22669C24.7458 4.35927 24.7458 5.49185 24.7458 6.62443C24.0433 6.62561 23.3409 6.62856 22.6379 6.62856C21.2014 6.62915 19.7649 6.61853 18.3284 6.63092C15.8186 6.65274 14.16 9.10961 15.0816 11.4255C15.6118 12.7581 16.879 13.5998 18.3752 13.6034C20.4984 13.6081 22.6221 13.6069 24.7452 13.6087C24.7452 14.7412 24.7452 15.8738 24.7452 17.0064C24.7329 17.0347 24.7124 17.0624 24.7089 17.0913C24.5419 18.5885 23.2226 20.1157 21.168 20.1127C15.552 20.1051 9.93664 20.1139 4.32068 20.1021C3.91352 20.1015 3.48761 20.0402 3.1027 19.911C1.658 19.4255 0.753443 18.1225 0.750514 16.5693C0.745241 13.9425 0.748756 11.3158 0.748756 8.68902C0.748756 7.00608 0.741726 5.32314 0.750514 3.6402C0.761645 1.76377 2.12082 0.266056 3.97093 0.151618C4.99793 0.0879108 6.03195 0.123894 7.06246 0.123894C11.7569 0.122124 16.4507 0.119175 21.1451 0.125663C22.6613 0.127433 23.7797 0.81052 24.4359 2.19734C24.587 2.51706 24.6444 2.8822 24.7458 3.22669Z" fill="white"/>
<path d="M24.7455 8.03971C24.7455 9.42417 24.7455 10.808 24.7455 12.1925C22.5292 12.1913 20.3136 12.1907 18.0973 12.1896C18.0815 12.1896 18.0662 12.1878 18.0504 12.186C16.6485 12.0551 15.7773 10.4358 16.4364 9.18645C16.8547 8.39305 17.5214 8.0285 18.4013 8.0285C20.0482 8.02909 21.695 8.02791 23.3412 8.02909C23.8093 8.02968 24.2774 8.03617 24.7455 8.03971ZM18.7493 10.8151C18.9052 10.8151 19.0622 10.824 19.2174 10.8134C19.6152 10.7856 19.9005 10.4871 19.8982 10.1126C19.8958 9.73681 19.6099 9.43833 19.2104 9.41945C18.8987 9.40471 18.5859 9.40412 18.2748 9.42004C17.8764 9.4401 17.5917 9.74507 17.594 10.1191C17.5964 10.4948 17.8823 10.7874 18.2818 10.8134C18.4371 10.824 18.5935 10.8157 18.7493 10.8151Z" fill="white"/>
</svg>
