<svg xmlns="http://www.w3.org/2000/svg" width="163" height="67" fill="none" viewBox="0 0 163 67"><g id="Frame" clip-path="url(#clip0_6_85)"><g id="Group"><g id="Group_2"><path id="Vector" fill="#fff" d="M47.1957 15.0318C48.2476 14.9777 51.0133 15.088 51.0133 17.2417C51.0133 18.0688 50.6255 19.3954 50.4587 19.9457L43.0466 41.4776L36.9237 25.4684C35.5913 27.6081 34.3389 29.7694 33.1744 31.8982L41.387 53.4582H41.8842L52.9471 20.5544C53.6111 18.5651 54.4431 15.3637 57.7602 15.0307V14.3138H47.1946V15.0318H47.1957Z"/><path id="Vector_2" fill="#C01515" d="M29.3535 19.1197C26.6127 19.7976 23.7279 19.8636 21.3002 18.5023C17.8747 16.5832 15.0863 16.4146 13.1146 16.7508L19.6297 33.294C23.001 27.7519 26.252 23.0671 29.3535 19.1197Z"/><path id="Vector_3" fill="#fff" d="M19.2863 37.5105L10.1507 14.3147H0V15.0283C3.42544 14.8661 4.63984 16.6836 6.34715 20.5942L19.0165 49.4176V60.9333C12.7723 61.1128 7.38063 62.727 4.42426 65.0656C8.75752 64.4233 13.7224 64.0341 19.0165 63.9855C19.4076 63.979 19.7976 63.979 20.1941 63.979C20.8787 63.979 21.558 63.9855 22.2318 63.9974C27.2086 64.0752 31.8657 64.459 35.965 65.0656C33.1408 62.834 28.1099 61.263 22.2318 60.969V51.3248L23.1396 49.0683L24.5458 45.5653C30.5192 31.6677 44.5405 3.74612 61.9635 0.200912C61.9635 0.200912 44.0119 -5.005 19.2863 37.5105Z"/><path id="Vector_4" fill="#C01515" d="M26.4806 17.1865C27.7524 17.1865 28.7826 16.1583 28.7826 14.889C28.7826 13.6197 27.7524 12.5915 26.4806 12.5915C25.2098 12.5915 24.1785 13.6197 24.1785 14.889C24.1785 16.1583 25.2088 17.1865 26.4806 17.1865Z"/><path id="Vector_5" fill="#C01515" d="M22.5536 12.4087C22.5798 11.6812 22.0102 11.0703 21.2813 11.0442C20.5524 11.0181 19.9403 11.5866 19.9141 12.3141C19.8879 13.0415 20.4576 13.6524 21.1865 13.6785C21.9154 13.7047 22.5275 13.1361 22.5536 12.4087Z"/><path id="Vector_6" fill="#C01515" d="M30.3643 11.3838C31.0933 11.3838 31.6848 10.7935 31.6848 10.0658C31.6848 9.33819 31.0933 8.74786 30.3643 8.74786C29.6352 8.74786 29.0437 9.33711 29.0437 10.0658C29.0437 10.7935 29.6341 11.3838 30.3643 11.3838Z"/><path id="Vector_7" fill="#C01515" d="M62.1531 15.0328H63.0934C67.8502 15.0328 67.7397 17.7931 67.7397 18.9532V48.3247C67.7397 49.4837 67.8502 52.2451 63.0934 52.2451H62.1531V52.963H79.4677V52.2451H78.5274C73.7695 52.2451 73.8811 49.4848 73.8811 48.3247V18.9521C73.8811 17.7931 73.7706 15.0318 78.5274 15.0318H79.4677V14.3138H62.1531V15.0328Z"/><path id="Vector_8" fill="#C01515" d="M112.162 15.0328H113.102C117.859 15.0328 117.749 17.7931 117.749 18.9532V42.5274L93.6851 14.3149H82.4002V15.0328C85.3317 15.0328 87.7659 16.4686 89.8133 19.0084V48.3247C89.8133 49.4837 89.9238 52.2451 85.167 52.2451H84.2819V52.963H97.8905V52.2451H96.9502C92.1923 52.2451 92.3039 49.4848 92.3039 48.3247V21.9892L119.465 53.4593H120.239V18.9521C120.239 17.7931 120.129 15.0318 124.886 15.0318H125.826V14.3138H112.162V15.0328Z"/><path id="Vector_9" fill="#C01515" d="M162.336 43.134C160.234 48.6545 157.634 50.366 152.212 50.366H141.536V33.7482H151.493C153.318 33.7482 155.642 34.0239 155.808 39.2687H156.527V25.8534H155.808C155.642 31.0982 153.318 31.3739 151.493 31.3739H141.536V16.9098H152.212C154.702 16.9098 157.966 17.2406 158.961 22.4303L159.791 22.32L159.293 14.3149H129.808V15.0328H130.749C135.505 15.0328 135.395 17.7931 135.395 18.9532V48.3247C135.395 49.4838 135.505 52.2451 130.749 52.2451H129.808V52.963H160.178L162.999 43.3015L162.336 43.134Z"/></g><g id="Group_3"><path id="Vector_10" fill="#fff" d="M48.4459 59.8058L48.538 61.4092H48.3961C48.3755 61.0546 48.2336 60.2826 47.1156 60.2826H45.9868V66.0561C45.9868 66.2691 45.9662 66.7762 46.8404 66.7762H47.0127V66.9081H43.831V66.7762H44.0032C44.8775 66.7762 44.8569 66.2691 44.8569 66.0561V60.2826H43.7281C42.6101 60.2826 42.4671 61.0535 42.4476 61.4092H42.3057L42.3977 59.8058H48.4459Z"/><path id="Vector_11" fill="#fff" d="M51.9439 66.7762C52.4119 66.7048 52.6351 66.3297 52.8691 65.8129L55.573 59.715H55.6651L58.3799 65.8129C58.6854 66.4929 58.797 66.6951 59.4275 66.7762V66.9081H56.5805V66.7762C57.211 66.6648 57.2922 66.5221 57.2922 66.3297C57.2922 66.2075 57.2619 66.0453 57.2207 65.9448L56.6314 64.5846H53.948L53.3685 65.9339C53.3078 66.0659 53.2461 66.188 53.2461 66.3199C53.2461 66.6551 53.6631 66.7665 53.9784 66.7762V66.9081H51.945V66.7762H51.9439ZM54.1398 64.1489H56.4473L55.2881 61.5011L54.1398 64.1489Z"/><path id="Vector_12" fill="#fff" d="M69.7872 61.8763H69.6551C69.1567 60.5475 67.9976 60.0804 67.0421 60.0804C65.6804 60.0804 64.3176 61.1767 64.3176 63.2559C64.3176 65.1425 65.3749 66.574 67.1028 66.574C67.8048 66.574 68.2923 66.4216 68.7397 66.0669V63.9467C68.7397 63.7338 68.7602 63.2267 67.886 63.2267H67.8145V63.0948H70.7936V63.2267H70.7221C69.8479 63.2267 69.8674 63.7338 69.8674 63.9467V66.2097C68.8707 66.8184 67.8643 67.0011 67.0822 67.0011C64.3782 67.0011 63.0869 65.2863 63.0869 63.4602C63.0869 61.6341 64.3685 59.7161 67.0519 59.7161C67.5805 59.7161 67.977 59.7874 68.4547 59.9593C68.7494 60.0707 68.9628 60.1831 69.1567 60.1831C69.3799 60.1831 69.5023 59.9701 69.5229 59.7572H69.6551L69.7872 61.8763Z"/><path id="Vector_13" fill="#fff" d="M79.5078 66.4313C80.5045 66.4313 80.9822 66.1167 81.3679 65.1025L81.4892 65.1328L80.9703 66.9081H75.389V66.7762H75.5624C76.4366 66.7762 76.416 66.2691 76.416 66.0561V60.6589C76.416 60.4459 76.4366 59.9388 75.5624 59.9388H75.389V59.8069H78.5707V59.9388H78.3974C77.5232 59.9388 77.5438 60.4459 77.5438 60.6589V66.4324H79.5078V66.4313Z"/><path id="Vector_14" fill="#fff" d="M88.9327 59.8058V59.9377H88.7604C87.8862 59.9377 87.9068 60.4448 87.9068 60.6578V66.055C87.9068 66.268 87.8862 66.7751 88.7604 66.7751H88.9327V66.907H85.751V66.7751H85.9232C86.7975 66.7751 86.7769 66.268 86.7769 66.055V60.6578C86.7769 60.4448 86.7975 59.9377 85.9232 59.9377H85.751V59.8058H88.9327Z"/><path id="Vector_15" fill="#fff" d="M99.8308 64.9911V60.6588C99.8308 60.4458 99.8514 59.9388 98.9771 59.9388H98.8049V59.8069H101.316V59.9388H101.143C100.268 59.9388 100.289 60.4458 100.289 60.6588V67H100.147L95.1552 61.2167V66.0561C95.1552 66.2691 95.1346 66.7762 96.0088 66.7762H96.1822V66.9081H93.6819V66.7762H93.8444C94.7186 66.7762 94.698 66.2691 94.698 66.0561V60.6686C94.3221 60.2015 93.8747 59.9377 93.3363 59.9377V59.8058H95.4098L99.8308 64.9911Z"/><path id="Vector_16" fill="#fff" d="M111.422 61.2773L111.27 61.2978C111.086 60.3442 110.486 60.2837 110.029 60.2837H108.067V62.9423H109.897C110.233 62.9423 110.66 62.8915 110.69 61.9281H110.822V64.3933H110.69C110.66 63.4299 110.233 63.3791 109.897 63.3791H108.067V66.4334H110.029C111.026 66.4334 111.504 66.1188 111.889 65.1047L112.011 65.1349L111.492 66.9102H105.91V66.7783H106.084C106.958 66.7783 106.937 66.2713 106.937 66.0583V60.661C106.937 60.448 106.958 59.9409 106.084 59.9409H105.91V59.809H111.329L111.422 61.2773Z"/><path id="Vector_17" fill="#fff" d="M128.197 62.9823V60.6589C128.197 60.4459 128.218 59.9388 127.344 59.9388H127.17V59.8069H130.352V59.9388H130.179C129.305 59.9388 129.325 60.4459 129.325 60.6589V66.0561C129.325 66.2691 129.305 66.7762 130.179 66.7762H130.352V66.9081H127.17V66.7762H127.344C128.218 66.7762 128.197 66.2691 128.197 66.0561V63.4591H124.935V66.0561C124.935 66.2691 124.914 66.7762 125.788 66.7762H125.961V66.9081H122.78V66.7762H122.953C123.827 66.7762 123.807 66.2691 123.807 66.0561V60.6589C123.807 60.4459 123.827 59.9388 122.953 59.9388H122.78V59.8069H125.961V59.9388H125.788C124.914 59.9388 124.935 60.4459 124.935 60.6589V62.9823H128.197Z"/><path id="Vector_18" fill="#fff" d="M140.53 61.2773L140.377 61.2978C140.194 60.3442 139.594 60.2837 139.137 60.2837H137.175V62.9423H139.005C139.34 62.9423 139.767 62.8915 139.798 61.9281H139.93V64.3933H139.798C139.767 63.4299 139.34 63.3791 139.005 63.3791H137.175V66.4334H139.137C140.133 66.4334 140.611 66.1188 140.997 65.1047L141.118 65.1349L140.599 66.9102H135.018V66.7783H135.191C136.066 66.7783 136.045 66.2713 136.045 66.0583V60.661C136.045 60.448 136.066 59.9409 135.191 59.9409H135.018V59.809H140.437L140.53 61.2773Z"/><path id="Vector_19" fill="#fff" d="M148.888 59.8058C149.671 59.8058 151.297 59.8771 151.297 61.6016C151.297 62.6969 150.432 63.3164 149.599 63.4483L151.541 65.9545C151.917 66.4313 152.222 66.7459 152.832 66.7762V66.9081H150.88L148.429 63.5597H147.81V66.055C147.81 66.268 147.789 66.7751 148.663 66.7751H148.837V66.907H145.655V66.7751H145.828C146.703 66.7751 146.682 66.268 146.682 66.055V60.6578C146.682 60.4448 146.703 59.9377 145.828 59.9377H145.655V59.8058H148.888ZM147.811 63.1445C147.964 63.1542 148.105 63.1542 148.258 63.1542C149.621 63.1542 150.139 62.3725 150.139 61.6222C150.139 60.8307 149.569 60.1507 148.523 60.1507C148.299 60.1507 148.065 60.181 147.811 60.2523V63.1445Z"/><path id="Vector_20" fill="#fff" d="M162.41 61.2773L162.257 61.2978C162.074 60.3442 161.474 60.2837 161.016 60.2837H159.055V62.9423H160.884C161.22 62.9423 161.647 62.8915 161.677 61.9281H161.809V64.3933H161.677C161.647 63.4299 161.22 63.3791 160.884 63.3791H159.055V66.4334H161.016C162.013 66.4334 162.491 66.1188 162.877 65.1047L162.999 65.1349L162.48 66.9102H156.899V66.7783H157.071C157.945 66.7783 157.925 66.2713 157.925 66.0583V60.661C157.925 60.448 157.945 59.9409 157.071 59.9409H156.899V59.809H162.318L162.41 61.2773Z"/></g></g></g><defs><clipPath id="clip0_6_85"><rect width="163" height="67" fill="#fff"/></clipPath></defs></svg>